<?xml version="1.0" encoding="utf-8"?>
<!-- Generator: Adobe Illustrator 16.0.0, SVG Export Plug-In . SVG Version: 6.00 Build 0)  -->
<!DOCTYPE svg PUBLIC "-//W3C//DTD SVG 1.1//EN" "http://www.w3.org/Graphics/SVG/1.1/DTD/svg11.dtd">
<svg version="1.1" id="Layer_1" xmlns="http://www.w3.org/2000/svg" xmlns:xlink="http://www.w3.org/1999/xlink" x="0px" y="0px"
	 width="125px" height="125px" viewBox="0 0 125 125" enable-background="new 0 0 125 125" xml:space="preserve">
<path fill="#1996D5" d="M62.5,45.396c9.431,0,17.105,7.672,17.105,17.104c0,9.431-7.674,17.104-17.105,17.104
	S45.396,71.931,45.396,62.5C45.396,53.068,53.069,45.396,62.5,45.396z M62.5,41.975c-11.335,0-20.525,9.19-20.525,20.525
	c0,11.336,9.19,20.525,20.525,20.525c11.333,0,20.525-9.189,20.525-20.525C83.025,51.165,73.834,41.975,62.5,41.975z M65.92,62.5
	l-7.696,7.697l2.612,2.566L71.053,62.5L60.836,52.237l-2.612,2.566L65.92,62.5z"/>
</svg>
