<?xml version="1.0" encoding="utf-8"?>
<!-- Generator: Adobe Illustrator 16.0.0, SVG Export Plug-In . SVG Version: 6.00 Build 0)  -->
<!DOCTYPE svg PUBLIC "-//W3C//DTD SVG 1.1//EN" "http://www.w3.org/Graphics/SVG/1.1/DTD/svg11.dtd">
<svg version="1.1" id="Layer_1" xmlns="http://www.w3.org/2000/svg" xmlns:xlink="http://www.w3.org/1999/xlink" x="0px" y="0px"
	 width="125px" height="125px" viewBox="0 0 125 125" enable-background="new 0 0 125 125" xml:space="preserve">
<g>
	<path fill="#FFFFFF" d="M48.327,68.214c-0.667,0-1.214-0.042-1.644-0.127c-0.429-0.084-0.771-0.208-1.025-0.372
		s-0.429-0.37-0.525-0.618c-0.096-0.249-0.144-0.543-0.144-0.882c0-0.102,0.005-0.245,0.017-0.432s0.028-0.449,0.051-0.788
		s0.054-0.776,0.093-1.313s0.093-1.211,0.161-2.024c0.079-1.005,0.141-1.802,0.186-2.389c0.045-0.587,0.079-1.042,0.102-1.364
		c0.022-0.322,0.036-0.547,0.042-0.677s0.009-0.24,0.009-0.331c0-0.181,0.002-0.328,0.008-0.44c0.005-0.113,0.017-0.201,0.034-0.263
		c0.017-0.062,0.045-0.107,0.085-0.136c0.04-0.028,0.099-0.042,0.178-0.042c0.667-0.045,1.234-0.079,1.703-0.102
		c0.469-0.023,0.878-0.034,1.229-0.034c0.858,0,1.595,0.071,2.21,0.212s1.115,0.342,1.5,0.602c0.384,0.26,0.667,0.582,0.847,0.965
		c0.181,0.384,0.271,0.819,0.271,1.305c0,0.271-0.028,0.55-0.084,0.838c-0.057,0.288-0.153,0.562-0.288,0.822
		c-0.136,0.26-0.319,0.489-0.551,0.686c-0.231,0.198-0.522,0.342-0.873,0.432c0.655,0.203,1.118,0.54,1.389,1.008
		c0.271,0.469,0.407,1.025,0.407,1.669c0,0.52-0.084,1.008-0.254,1.465c-0.169,0.458-0.463,0.858-0.881,1.203
		s-0.971,0.618-1.66,0.821S49.365,68.214,48.327,68.214z M49.292,62.962c-0.124,0-0.277,0.009-0.457,0.025
		c-0.181,0.017-0.367,0.042-0.559,0.077l-0.187,2.761c0.407,0.125,0.773,0.187,1.101,0.187c0.35,0,0.632-0.051,0.847-0.152
		c0.214-0.102,0.381-0.229,0.5-0.381c0.119-0.152,0.198-0.322,0.237-0.509s0.06-0.358,0.06-0.517c0-0.418-0.116-0.771-0.348-1.059
		S49.857,62.962,49.292,62.962z M48.581,58.304c-0.023,0.293-0.042,0.638-0.059,1.033c-0.017,0.396-0.042,0.825-0.076,1.288
		c0.361,0.091,0.683,0.136,0.965,0.136c0.339,0,0.61-0.04,0.813-0.119c0.203-0.079,0.364-0.181,0.482-0.305
		c0.119-0.124,0.198-0.26,0.237-0.406c0.04-0.147,0.06-0.288,0.06-0.424c0-0.35-0.116-0.652-0.348-0.906
		c-0.231-0.254-0.629-0.381-1.194-0.381c-0.125,0-0.263,0.009-0.415,0.025C48.894,58.261,48.739,58.281,48.581,58.304z"/>
	<path fill="#FFFFFF" d="M58.982,68.214c-0.497,0-0.991-0.062-1.482-0.186c-0.491-0.124-0.932-0.339-1.321-0.645
		c-0.39-0.305-0.709-0.711-0.957-1.22c-0.249-0.508-0.373-1.146-0.373-1.914c0-0.282,0.023-0.621,0.068-1.017
		c0.045-0.395,0.133-0.802,0.263-1.22c0.13-0.417,0.311-0.833,0.542-1.245c0.231-0.412,0.534-0.782,0.907-1.11
		c0.373-0.327,0.824-0.593,1.355-0.796c0.531-0.204,1.163-0.305,1.897-0.305c0.587,0,1.084,0.068,1.491,0.204
		c0.406,0.135,0.734,0.319,0.982,0.55c0.248,0.232,0.429,0.5,0.542,0.805c0.113,0.305,0.169,0.633,0.169,0.983
		c0,0.52-0.104,0.96-0.313,1.321s-0.48,0.664-0.813,0.907c-0.333,0.242-0.703,0.432-1.11,0.567c-0.406,0.136-0.808,0.24-1.203,0.313
		c-0.396,0.073-0.76,0.118-1.093,0.135c-0.333,0.018-0.59,0.025-0.771,0.025c0,0.215,0.031,0.427,0.093,0.636
		s0.155,0.393,0.28,0.551c0.124,0.158,0.288,0.288,0.491,0.39c0.203,0.102,0.452,0.152,0.745,0.152c0.294,0,0.522-0.048,0.687-0.144
		c0.164-0.097,0.296-0.204,0.398-0.322c0.102-0.119,0.189-0.226,0.263-0.322c0.073-0.096,0.172-0.144,0.296-0.144
		c0.056,0,0.155,0.014,0.296,0.042s0.285,0.088,0.432,0.178c0.146,0.091,0.276,0.215,0.39,0.373c0.113,0.158,0.169,0.361,0.169,0.61
		c0,0.327-0.102,0.609-0.305,0.847c-0.203,0.237-0.466,0.43-0.788,0.576s-0.681,0.254-1.076,0.321
		C59.739,68.181,59.355,68.214,58.982,68.214z M59.305,60.811c-0.249,0-0.46,0.07-0.636,0.211c-0.175,0.142-0.322,0.319-0.44,0.534
		c-0.119,0.215-0.209,0.452-0.271,0.712s-0.11,0.508-0.144,0.746c0.7-0.012,1.268-0.13,1.703-0.356s0.652-0.548,0.652-0.966
		c0-0.226-0.071-0.429-0.212-0.61S59.598,60.811,59.305,60.811z"/>
	<path fill="#FFFFFF" d="M66.047,68.197c-0.7,0-1.203-0.187-1.508-0.559c-0.305-0.373-0.457-0.988-0.457-1.847
		c0-0.136,0.008-0.306,0.025-0.509c0.017-0.203,0.039-0.466,0.067-0.787c0.028-0.322,0.065-0.721,0.11-1.194
		c0.045-0.475,0.094-1.051,0.145-1.729s0.106-1.474,0.169-2.389c0.062-0.915,0.127-1.977,0.194-3.185
		c0.012-0.248,0.04-0.395,0.085-0.44c0.034-0.034,0.124-0.051,0.271-0.051h0.662c0.338,0,0.62,0.04,0.847,0.119
		c0.226,0.079,0.406,0.186,0.542,0.322s0.231,0.291,0.288,0.466c0.056,0.175,0.084,0.359,0.084,0.551
		c0,0.226-0.014,0.55-0.042,0.974c-0.028,0.423-0.065,0.901-0.11,1.432s-0.09,1.084-0.135,1.66
		c-0.046,0.576-0.091,1.126-0.136,1.652c-0.046,0.525-0.082,0.997-0.11,1.415s-0.042,0.734-0.042,0.948
		c0,0.294,0.053,0.503,0.16,0.627c0.107,0.125,0.224,0.212,0.348,0.263s0.24,0.085,0.348,0.102c0.106,0.018,0.161,0.054,0.161,0.11
		c0,0.249-0.028,0.494-0.085,0.737c-0.057,0.242-0.158,0.463-0.305,0.66c-0.147,0.198-0.348,0.356-0.602,0.475
		C66.767,68.138,66.442,68.197,66.047,68.197z"/>
	<path fill="#FFFFFF" d="M70.943,68.045c-0.35,0-0.635-0.036-0.855-0.11c-0.22-0.073-0.396-0.178-0.525-0.313
		c-0.13-0.135-0.22-0.302-0.271-0.499c-0.051-0.198-0.076-0.427-0.076-0.687c0-0.17,0.008-0.409,0.025-0.72
		c0.017-0.311,0.048-0.74,0.093-1.288s0.099-1.242,0.161-2.083c0.062-0.841,0.138-1.883,0.229-3.126
		c0.011-0.248,0.039-0.395,0.085-0.44c0.033-0.034,0.124-0.051,0.271-0.051h0.661c0.35,0,0.635,0.034,0.855,0.102
		c0.221,0.068,0.396,0.169,0.525,0.305c0.13,0.135,0.22,0.299,0.271,0.491c0.051,0.192,0.076,0.407,0.076,0.644
		c0,0.169-0.011,0.424-0.033,0.763c-0.023,0.339-0.054,0.799-0.094,1.381c-0.039,0.582-0.093,1.305-0.16,2.168
		c-0.068,0.864-0.153,1.906-0.255,3.126c-0.011,0.136-0.039,0.227-0.084,0.271c-0.046,0.045-0.142,0.067-0.288,0.067H70.943z
		 M69.74,56.728c0-0.452,0.164-0.808,0.492-1.067c0.327-0.26,0.768-0.39,1.321-0.39c0.485,0,0.838,0.099,1.059,0.296
		c0.22,0.198,0.33,0.46,0.33,0.788c0,0.418-0.155,0.765-0.466,1.042c-0.311,0.277-0.766,0.416-1.363,0.416
		C70.198,57.813,69.74,57.451,69.74,56.728z"/>
	<path fill="#FFFFFF" d="M79.498,66.046c-0.282,0.508-0.627,0.884-1.033,1.127c-0.406,0.242-0.915,0.364-1.524,0.364
		c-0.464,0-0.888-0.074-1.271-0.221s-0.711-0.378-0.982-0.694c-0.271-0.316-0.482-0.715-0.635-1.194
		c-0.152-0.48-0.229-1.054-0.229-1.72c0-0.542,0.057-1.115,0.17-1.72c0.112-0.604,0.319-1.161,0.618-1.668
		c0.299-0.508,0.709-0.929,1.229-1.262s1.186-0.5,1.999-0.5c0.339,0,0.63,0.037,0.872,0.11c0.243,0.073,0.452,0.172,0.627,0.296
		c0.175,0.125,0.316,0.271,0.424,0.44s0.189,0.35,0.246,0.542c0,0.012,0.002-0.031,0.008-0.127c0.006-0.096,0.015-0.206,0.025-0.331
		c0.012-0.124,0.02-0.246,0.025-0.364c0.006-0.118,0.009-0.195,0.009-0.229c0.011-0.113,0.085-0.169,0.22-0.169h0.779
		c0.588,0,1.014,0.122,1.279,0.364c0.266,0.243,0.398,0.703,0.398,1.381c0,0.09-0.006,0.296-0.017,0.618
		c-0.012,0.322-0.031,0.709-0.06,1.161s-0.065,0.951-0.11,1.499s-0.096,1.099-0.152,1.652c-0.057,0.553-0.118,1.084-0.187,1.592
		c-0.067,0.509-0.142,0.955-0.22,1.339c-0.079,0.384-0.215,0.757-0.407,1.118s-0.463,0.684-0.813,0.966
		c-0.351,0.282-0.8,0.508-1.348,0.678c-0.548,0.169-1.217,0.254-2.007,0.254c-0.6,0-1.121-0.057-1.567-0.17
		c-0.446-0.112-0.816-0.263-1.109-0.448c-0.294-0.187-0.517-0.398-0.67-0.636c-0.152-0.237-0.229-0.475-0.229-0.712
		c0-0.214,0.045-0.4,0.136-0.559c0.09-0.158,0.209-0.288,0.355-0.39s0.308-0.178,0.483-0.229c0.175-0.051,0.341-0.076,0.499-0.076
		c0.192,0,0.333,0.056,0.424,0.169s0.192,0.24,0.305,0.382c0.113,0.141,0.271,0.268,0.475,0.381c0.203,0.112,0.52,0.169,0.949,0.169
		c0.745,0,1.268-0.273,1.566-0.821C79.349,67.861,79.498,67.073,79.498,66.046z M78.075,65.283c0.406,0,0.726-0.096,0.957-0.288
		c0.231-0.191,0.409-0.423,0.533-0.694c0.125-0.271,0.204-0.553,0.237-0.847c0.034-0.294,0.051-0.548,0.051-0.763
		c0-0.678-0.104-1.161-0.313-1.448c-0.209-0.288-0.522-0.432-0.939-0.432c-0.418,0-0.746,0.113-0.983,0.339
		c-0.236,0.226-0.415,0.494-0.533,0.805s-0.195,0.621-0.229,0.932c-0.034,0.311-0.051,0.55-0.051,0.72
		c0,0.564,0.096,0.985,0.288,1.262C77.284,65.146,77.611,65.283,78.075,65.283z"/>
	<path fill="#FFFFFF" d="M89.866,65.944c0.034-0.373,0.07-0.763,0.11-1.169c0.039-0.407,0.073-0.797,0.102-1.169
		c0.027-0.373,0.053-0.706,0.076-1c0.022-0.294,0.033-0.508,0.033-0.644c0-0.293-0.07-0.556-0.211-0.788
		c-0.142-0.231-0.415-0.348-0.822-0.348c-0.542,0-0.979,0.254-1.313,0.763c-0.334,0.508-0.528,1.186-0.585,2.033
		c-0.022,0.237-0.051,0.567-0.085,0.991c-0.033,0.424-0.067,0.853-0.102,1.287c-0.033,0.436-0.064,0.825-0.093,1.169
		c-0.028,0.345-0.042,0.557-0.042,0.636c0,0.136-0.025,0.227-0.076,0.271s-0.15,0.067-0.297,0.067h-0.61
		c-0.35,0-0.635-0.036-0.855-0.11c-0.22-0.073-0.396-0.178-0.524-0.313c-0.131-0.135-0.221-0.302-0.271-0.499
		c-0.051-0.198-0.076-0.427-0.076-0.687c0-0.248,0.02-0.596,0.06-1.042c0.039-0.446,0.093-1.062,0.16-1.847
		c0.068-0.785,0.147-1.787,0.237-3.007c0.091-1.22,0.187-2.733,0.288-4.541c0.012-0.248,0.04-0.395,0.085-0.44
		c0.034-0.034,0.124-0.051,0.271-0.051h0.66c0.339,0,0.621,0.04,0.848,0.119c0.226,0.079,0.406,0.186,0.542,0.322
		c0.135,0.136,0.231,0.291,0.288,0.466c0.056,0.175,0.084,0.359,0.084,0.551c0,0.203-0.02,0.582-0.059,1.135
		c-0.04,0.554-0.088,1.203-0.145,1.948c0.339-0.564,0.714-0.954,1.127-1.169c0.412-0.214,0.935-0.322,1.566-0.322
		c0.475,0,0.887,0.051,1.237,0.152c0.35,0.102,0.641,0.274,0.872,0.517s0.404,0.559,0.517,0.949c0.113,0.39,0.17,0.872,0.17,1.448
		c0,0.181-0.017,0.491-0.051,0.932c-0.034,0.441-0.076,0.943-0.127,1.508c-0.051,0.565-0.102,1.155-0.152,1.771
		c-0.051,0.616-0.094,1.178-0.127,1.686c-0.012,0.125-0.023,0.221-0.034,0.288c-0.012,0.068-0.031,0.119-0.06,0.152
		c-0.028,0.034-0.07,0.057-0.127,0.068c-0.057,0.011-0.136,0.017-0.237,0.017h-0.542c-0.361,0-0.655-0.034-0.881-0.102
		c-0.227-0.067-0.401-0.164-0.525-0.288s-0.212-0.279-0.263-0.466s-0.076-0.398-0.076-0.636c0-0.112,0.003-0.22,0.009-0.321
		C89.846,66.131,89.854,66.035,89.866,65.944z"/>
	<path fill="#FFFFFF" d="M98.185,61.014c-0.034,0.429-0.07,0.853-0.11,1.271c-0.039,0.418-0.076,0.813-0.109,1.186
		c-0.034,0.373-0.06,0.706-0.076,1c-0.018,0.293-0.026,0.52-0.026,0.677c0,0.294,0.034,0.489,0.103,0.585
		c0.067,0.096,0.18,0.144,0.339,0.144c0.124,0,0.23-0.022,0.321-0.067s0.175-0.096,0.254-0.152s0.15-0.107,0.212-0.152
		c0.063-0.045,0.133-0.068,0.212-0.068s0.152,0.046,0.221,0.136c0.067,0.091,0.102,0.3,0.102,0.627c0,0.621-0.17,1.112-0.509,1.474
		c-0.339,0.362-0.921,0.542-1.745,0.542c-0.813,0-1.414-0.188-1.804-0.567c-0.39-0.378-0.585-0.957-0.585-1.736
		c0-0.169,0.009-0.37,0.025-0.602c0.018-0.231,0.043-0.533,0.076-0.906c0.034-0.372,0.076-0.83,0.128-1.372
		c0.051-0.542,0.104-1.214,0.16-2.016h-0.897c-0.091,0-0.145-0.02-0.161-0.059s-0.025-0.099-0.025-0.178l0.051-0.864
		c0.011-0.146,0.031-0.291,0.06-0.432c0.028-0.141,0.085-0.268,0.169-0.381c0.085-0.113,0.206-0.203,0.364-0.271
		c0.158-0.067,0.367-0.102,0.627-0.102c0.079-0.203,0.17-0.446,0.271-0.729c0.102-0.282,0.203-0.556,0.305-0.822
		c0.102-0.265,0.2-0.488,0.297-0.669c0.096-0.181,0.183-0.271,0.262-0.271h0.492c0.474,0,0.802,0.147,0.982,0.44
		c0.181,0.294,0.271,0.644,0.271,1.05c0,0.226-0.017,0.559-0.051,1h1.779c0.181,0,0.271,0.079,0.271,0.237l-0.067,0.915
		c-0.022,0.339-0.116,0.613-0.279,0.822c-0.164,0.209-0.5,0.313-1.008,0.313H98.185z"/>
</g>
<g>
	<path fill="#FFFFFF" d="M25.532,70.878c1.192,0.518,2.505,0.808,3.887,0.808s2.695-0.29,3.887-0.808l-3.887-2.695L25.532,70.878z"
		/>
	<path fill="#FFFFFF" d="M39.193,61.911c0-5.398-4.376-9.774-9.774-9.774s-9.774,4.376-9.774,9.774c0,3.696,2.053,6.911,5.08,8.573
		l2.912-6.771c-1.234-0.646-2.086-1.925-2.086-3.415c0-2.137,1.732-3.869,3.868-3.869c2.137,0,3.869,1.732,3.869,3.869
		c0,1.49-0.852,2.768-2.086,3.415l2.912,6.771C37.14,68.822,39.193,65.607,39.193,61.911z"/>
</g>
<path fill="#1996D5" d="M31.202,63.714c1.234-0.646,2.086-1.925,2.086-3.415c0-2.137-1.732-3.869-3.869-3.869
	c-2.136,0-3.868,1.732-3.868,3.869c0,1.49,0.852,2.768,2.086,3.415l-2.912,6.771c0.262,0.144,0.532,0.273,0.808,0.394l3.886-2.695
	l3.887,2.695c0.276-0.12,0.546-0.25,0.808-0.394L31.202,63.714z"/>
</svg>
