<?xml version="1.0" encoding="utf-8"?>
<!-- Generator: Adobe Illustrator 16.0.0, SVG Export Plug-In . SVG Version: 6.00 Build 0)  -->
<!DOCTYPE svg PUBLIC "-//W3C//DTD SVG 1.1//EN" "http://www.w3.org/Graphics/SVG/1.1/DTD/svg11.dtd">
<svg version="1.1" id="Layer_1" xmlns="http://www.w3.org/2000/svg" xmlns:xlink="http://www.w3.org/1999/xlink" x="0px" y="0px"
	 width="125px" height="125px" viewBox="0 0 125 125" enable-background="new 0 0 125 125" xml:space="preserve">
<path fill="#1998D5" d="M68.939,72.824H56.061c-1.855,0-3.365-1.509-3.365-3.363v-12.88c0-1.855,1.51-3.364,3.365-3.364h12.879
	c1.855,0,3.365,1.509,3.365,3.364v12.88C72.305,71.315,70.795,72.824,68.939,72.824z M56.061,54.216
	c-1.304,0-2.365,1.061-2.365,2.364v12.88c0,1.303,1.061,2.363,2.365,2.363h12.879c1.304,0,2.365-1.061,2.365-2.363v-12.88
	c0-1.304-1.062-2.364-2.365-2.364H56.061z"/>
<g>
	<g>
		<path fill="#FFFFFF" d="M58.824,54.701c0,0.72-0.486,1.305-1.087,1.305l0,0c-0.597,0-1.084-0.584-1.084-1.305v-0.652
			c0-0.721,0.487-1.303,1.084-1.303l0,0c0.601,0,1.087,0.582,1.087,1.303V54.701z"/>
		<path fill="#1998D5" d="M57.737,56.426c-0.79,0-1.434-0.774-1.434-1.725v-0.652c0-0.95,0.644-1.723,1.434-1.723
			c0.793,0,1.438,0.773,1.438,1.723v0.652C59.175,55.652,58.53,56.426,57.737,56.426z M57.737,53.167
			c-0.404,0-0.733,0.396-0.733,0.882v0.652c0,0.487,0.329,0.884,0.733,0.884c0.406,0,0.737-0.396,0.737-0.884v-0.652
			C58.475,53.562,58.144,53.167,57.737,53.167z"/>
	</g>
	<g>
		<path fill="#FFFFFF" d="M68.347,54.701c0,0.72-0.486,1.305-1.086,1.305l0,0c-0.6,0-1.085-0.584-1.085-1.305v-0.652
			c0-0.721,0.485-1.303,1.085-1.303l0,0c0.6,0,1.086,0.582,1.086,1.303V54.701z"/>
		<path fill="#1998D5" d="M67.261,56.426c-0.791,0-1.435-0.774-1.435-1.725v-0.652c0-0.95,0.644-1.723,1.435-1.723
			c0.792,0,1.436,0.773,1.436,1.723v0.652C68.696,55.652,68.053,56.426,67.261,56.426z M67.261,53.167
			c-0.405,0-0.735,0.396-0.735,0.882v0.652c0,0.487,0.33,0.884,0.735,0.884c0.406,0,0.736-0.396,0.736-0.884v-0.652
			C67.997,53.562,67.667,53.167,67.261,53.167z"/>
	</g>
</g>
<g>
	<path fill="#1998D5" d="M69.768,70.441H55.233V57.599h14.535V70.441z M56.233,69.441h12.535V58.599H56.233V69.441z"/>
	<path fill="#1998D5" d="M67.594,62.184h-3.1v-3.099h3.1V62.184z M65.193,61.483h1.701v-1.698h-1.701V61.483z"/>
	<path fill="#1998D5" d="M60.59,65.686h-3.097v-3.099h3.097V65.686z M58.193,64.986h1.696v-1.699h-1.696V64.986z"/>
	<path fill="#1998D5" d="M64.09,65.686h-3.095v-3.099h3.095V65.686z M61.695,64.986h1.695v-1.699h-1.695V64.986z"/>
	<path fill="#1998D5" d="M67.594,65.686h-3.1v-3.099h3.1V65.686z M65.193,64.986h1.701v-1.699h-1.701V64.986z"/>
	<path fill="#1998D5" d="M60.59,69.186h-3.097V66.09h3.097V69.186z M58.193,68.486h1.696v-1.697h-1.696V68.486z"/>
	<path fill="#1998D5" d="M64.09,69.186h-3.095V66.09h3.095V69.186z M61.695,68.486h1.695v-1.697h-1.695V68.486z"/>
	<path fill="#1998D5" d="M67.594,69.186h-3.1V66.09h3.1V69.186z M65.193,68.486h1.701v-1.697h-1.701V68.486z"/>
</g>
</svg>
