<?xml version="1.0" encoding="utf-8"?>
<!-- Generator: Adobe Illustrator 16.0.0, SVG Export Plug-In . SVG Version: 6.00 Build 0)  -->
<!DOCTYPE svg PUBLIC "-//W3C//DTD SVG 1.1//EN" "http://www.w3.org/Graphics/SVG/1.1/DTD/svg11.dtd">
<svg version="1.1" id="Layer_1" xmlns="http://www.w3.org/2000/svg" xmlns:xlink="http://www.w3.org/1999/xlink" x="0px" y="0px"
	 width="1000px" height="500px" viewBox="0 0 1000 500" enable-background="new 0 0 1000 500" xml:space="preserve">
<g>
	<path fill="#D5E8F7" d="M310.385,280.291c60.375-24.547,167.191-15.26,149.941-108.143S591.85,74.62,698.586,92.533
		c106.735,17.914,219.682-2.654,145.959,116.769c-73.722,119.42,122.659,44.452,122.659,97.527
		c0,53.077-92.883,205.671-492.945,136.671C74.197,374.501,250.011,304.839,310.385,280.291z"/>
	<path fill="#D5E8F7" d="M248.931,129.797c-9.104-3.95-25.215-2.455-22.612-17.399c2.301-13.229-15.019-15.329-30.192-13.637
		c2.475-3.959,3.465-7.605,3.465-10.191c0-11.842-43.817,4.885-27.368-21.76c16.448-26.645-8.75-22.056-32.566-26.052
		c-23.816-3.997-57.008-2.96-53.16,17.764c3.848,20.724-19.984,18.651-33.453,24.128c-13.471,5.477-52.699,21.02,36.563,36.415
		c36.622,6.315,61.7,4.307,78.55-1.074c0.075,0.131,0.137,0.252,0.214,0.386c11.118,19.213-18.5,7.151-18.5,15.69
		c0,8.54,14.008,33.089,74.344,21.989C284.553,144.954,258.037,133.746,248.931,129.797z"/>
</g>
</svg>
