<?xml version="1.0" encoding="utf-8"?>
<!-- Generator: Adobe Illustrator 16.0.0, SVG Export Plug-In . SVG Version: 6.00 Build 0)  -->
<!DOCTYPE svg PUBLIC "-//W3C//DTD SVG 1.1//EN" "http://www.w3.org/Graphics/SVG/1.1/DTD/svg11.dtd">
<svg version="1.1" id="Layer_1" xmlns="http://www.w3.org/2000/svg" xmlns:xlink="http://www.w3.org/1999/xlink" x="0px" y="0px"
	 width="125px" height="125px" viewBox="0 0 125 125" enable-background="new 0 0 125 125" xml:space="preserve">
<path fill="#1998D5" d="M62.5,45.492c-4.461,0-8.504,3.617-8.504,8.082c0,4.461,3.688,9.789,8.504,17.43
	c4.817-7.641,8.504-12.969,8.504-17.43C71.004,49.109,66.963,45.492,62.5,45.492z M73.838,73.838c0,3.132-5.074,5.67-11.338,5.67
	c-6.263,0-11.338-2.538-11.338-5.67c0-2.27,2.676-4.224,6.531-5.129l1.636,2.586c-0.569,0.096-1.143,0.19-1.67,0.343
	c-4.694,1.345-4.895,2.989-0.03,4.396c2.959,0.855,6.77,0.858,9.745-0.001c5.129-1.483,4.484-3.224-0.381-4.489
	c-0.42-0.107-0.881-0.166-1.328-0.241l1.639-2.591C71.162,69.614,73.838,71.568,73.838,73.838z"/>
</svg>
