<?xml version="1.0" encoding="utf-8"?>
<!-- Generator: Adobe Illustrator 16.0.0, SVG Export Plug-In . SVG Version: 6.00 Build 0)  -->
<!DOCTYPE svg PUBLIC "-//W3C//DTD SVG 1.1//EN" "http://www.w3.org/Graphics/SVG/1.1/DTD/svg11.dtd">
<svg version="1.1" id="Layer_1" xmlns="http://www.w3.org/2000/svg" xmlns:xlink="http://www.w3.org/1999/xlink" x="0px" y="0px"
	 width="125px" height="125px" viewBox="0 0 125 125" enable-background="new 0 0 125 125" xml:space="preserve">
<g>
	<path fill="#1998D5" d="M62.5,46.5c-8.837,0-16,7.162-16,16c0,8.836,7.163,16,16,16s15.999-7.164,15.999-16
		C78.499,53.662,71.337,46.5,62.5,46.5z M71.755,70H52.882c-0.829,0-1.5-0.672-1.5-1.5s0.671-1.5,1.5-1.5h18.873
		c0.828,0,1.5,0.672,1.5,1.5S72.583,70,71.755,70z M71.755,64H52.882c-0.829,0-1.5-0.672-1.5-1.5c0-0.829,0.671-1.5,1.5-1.5h18.873
		c0.828,0,1.5,0.671,1.5,1.5C73.255,63.328,72.583,64,71.755,64z M71.755,58H52.882c-0.829,0-1.5-0.671-1.5-1.5s0.671-1.5,1.5-1.5
		h18.873c0.828,0,1.5,0.671,1.5,1.5S72.583,58,71.755,58z"/>
	<path fill="#FFFFFF" d="M71.755,55H52.882c-0.829,0-1.5,0.671-1.5,1.5s0.671,1.5,1.5,1.5h18.873c0.828,0,1.5-0.671,1.5-1.5
		S72.583,55,71.755,55z"/>
	<path fill="#FFFFFF" d="M71.755,61H52.882c-0.829,0-1.5,0.671-1.5,1.5c0,0.828,0.671,1.5,1.5,1.5h18.873c0.828,0,1.5-0.672,1.5-1.5
		C73.255,61.671,72.583,61,71.755,61z"/>
	<path fill="#FFFFFF" d="M71.755,67H52.882c-0.829,0-1.5,0.672-1.5,1.5s0.671,1.5,1.5,1.5h18.873c0.828,0,1.5-0.672,1.5-1.5
		S72.583,67,71.755,67z"/>
</g>
</svg>
