<?xml version="1.0" encoding="utf-8"?>
<!-- Generator: Adobe Illustrator 16.0.0, SVG Export Plug-In . SVG Version: 6.00 Build 0)  -->
<!DOCTYPE svg PUBLIC "-//W3C//DTD SVG 1.1//EN" "http://www.w3.org/Graphics/SVG/1.1/DTD/svg11.dtd">
<svg version="1.1" id="Layer_1" xmlns="http://www.w3.org/2000/svg" xmlns:xlink="http://www.w3.org/1999/xlink" x="0px" y="0px"
	 width="125px" height="125px" viewBox="0 0 125 125" enable-background="new 0 0 125 125" xml:space="preserve">
<path fill="#1998D5" d="M62.5,70.572c-4.452,0-8.074-3.621-8.074-8.071c0-4.452,3.622-8.074,8.074-8.074
	c4.453,0,8.075,3.622,8.075,8.074C70.574,66.951,66.952,70.572,62.5,70.572z M62.5,54.728c-4.287,0-7.774,3.487-7.774,7.774
	c0,4.285,3.487,7.77,7.774,7.77c4.288,0,7.775-3.485,7.775-7.77C70.274,58.215,66.787,54.728,62.5,54.728z"/>
<path fill="#1998D5" d="M67,63h-9c-0.276,0-0.5-0.224-0.5-0.5S57.724,62,58,62h9c0.276,0,0.5,0.224,0.5,0.5S67.276,63,67,63z"/>
</svg>
