<?xml version="1.0" encoding="utf-8"?>
<!-- Generator: Adobe Illustrator 16.0.0, SVG Export Plug-In . SVG Version: 6.00 Build 0)  -->
<!DOCTYPE svg PUBLIC "-//W3C//DTD SVG 1.1//EN" "http://www.w3.org/Graphics/SVG/1.1/DTD/svg11.dtd">
<svg version="1.1" id="Layer_1" xmlns="http://www.w3.org/2000/svg" xmlns:xlink="http://www.w3.org/1999/xlink" x="0px" y="0px"
	 width="125px" height="125px" viewBox="0 0 125 125" enable-background="new 0 0 125 125" xml:space="preserve">
<g>
	<path fill="#1998D5" d="M71.034,71.559H53.965c-0.7,0-1.27-0.57-1.27-1.271v-11.99c0-0.701,0.569-1.271,1.27-1.271h17.069
		c0.7,0,1.271,0.57,1.271,1.271v11.99C72.305,70.988,71.734,71.559,71.034,71.559z M53.965,58.026c-0.148,0-0.27,0.122-0.27,0.271
		v11.99c0,0.149,0.121,0.271,0.27,0.271h17.069c0.149,0,0.271-0.122,0.271-0.271v-11.99c0-0.15-0.121-0.271-0.271-0.271H53.965z"/>
	<path fill="#1998D5" d="M56.578,71.311c-0.276,0-0.5-0.224-0.5-0.5V57.28c0-0.276,0.224-0.5,0.5-0.5s0.5,0.224,0.5,0.5v13.531
		C57.078,71.087,56.854,71.311,56.578,71.311z"/>
	<path fill="#1998D5" d="M68.421,71.311c-0.276,0-0.5-0.224-0.5-0.5V57.28c0-0.276,0.224-0.5,0.5-0.5s0.5,0.224,0.5,0.5v13.531
		C68.921,71.087,68.697,71.311,68.421,71.311z"/>
	<path fill="none" d="M65.957,55h-6.915C58.892,55,59,54.663,59,54.812V58h7v-3.188C66,54.663,66.106,55,65.957,55z"/>
	<path fill="#1998D5" d="M59,54.812C59,54.663,58.892,55,59.042,55h6.915C66.106,55,66,54.663,66,54.812V58h1v-3.188
		C67,54.111,66.658,54,65.957,54h-6.915C58.341,54,58,54.111,58,54.812V58h1V54.812z"/>
</g>
</svg>
