<?xml version="1.0" encoding="utf-8"?>
<!-- Generator: Adobe Illustrator 16.0.0, SVG Export Plug-In . SVG Version: 6.00 Build 0)  -->
<!DOCTYPE svg PUBLIC "-//W3C//DTD SVG 1.1//EN" "http://www.w3.org/Graphics/SVG/1.1/DTD/svg11.dtd">
<svg version="1.1" id="Layer_1" xmlns="http://www.w3.org/2000/svg" xmlns:xlink="http://www.w3.org/1999/xlink" x="0px" y="0px"
	 width="125px" height="125px" viewBox="0 0 125 125" enable-background="new 0 0 125 125" xml:space="preserve">
<g>
	<path fill="#1998D5" d="M62.5,65.84c-3.03,0-5.497-2.467-5.497-5.499c0-3.029,2.466-5.494,5.497-5.494
		c3.032,0,5.497,2.465,5.497,5.494C67.996,63.373,65.531,65.84,62.5,65.84z M62.5,55.947c-2.422,0-4.395,1.973-4.395,4.395
		c0,2.424,1.972,4.395,4.395,4.395c2.424,0,4.394-1.971,4.394-4.395C66.894,57.919,64.924,55.947,62.5,55.947z"/>
	<path fill="#1998D5" d="M62.502,72.498l-0.271-0.154c-0.312-0.174-7.654-4.346-7.654-11.917c0-4.368,3.554-7.925,7.922-7.925
		c4.37,0,7.922,3.557,7.922,7.925c0,7.43-7.336,11.735-7.648,11.913L62.502,72.498z M62.5,53.606c-3.76,0-6.82,3.06-6.82,6.821
		c0,6.141,5.513,9.971,6.816,10.79c1.299-0.84,6.824-4.771,6.824-10.79C69.32,56.666,66.26,53.606,62.5,53.606z"/>
</g>
</svg>
